<svg xmlns="http://www.w3.org/2000/svg" viewBox="0 0 100 100">
  <defs>
    <radialGradient id="flareGrad" cx="50%" cy="50%" r="50%">
      <stop offset="0%" style="stop-color:#FFD700;stop-opacity:1" />
      <stop offset="70%" style="stop-color:#FF6B35;stop-opacity:1" />
      <stop offset="100%" style="stop-color:#1E3A8A;stop-opacity:1" />
    </radialGradient>
  </defs>
  
  <!-- Background circle -->
  <circle cx="50" cy="50" r="45" fill="url(#flareGrad)" stroke="#FFD700" stroke-width="2"/>
  
  <!-- Flare symbol -->
  <g transform="translate(50,50)">
    <!-- Central light -->
    <circle cx="0" cy="0" r="8" fill="#FFFFFF" opacity="0.9"/>
    
    <!-- Light rays -->
    <g stroke="#FFD700" stroke-width="3" stroke-linecap="round" opacity="0.8">
      <line x1="0" y1="-25" x2="0" y2="-15"/>
      <line x1="18" y1="-18" x2="13" y2="-13"/>
      <line x1="25" y1="0" x2="15" y2="0"/>
      <line x1="18" y1="18" x2="13" y2="13"/>
      <line x1="0" y1="25" x2="0" y2="15"/>
      <line x1="-18" y1="18" x2="-13" y2="13"/>
      <line x1="-25" y1="0" x2="-15" y2="0"/>
      <line x1="-18" y1="-18" x2="-13" y2="-13"/>
    </g>
    
    <!-- Smaller rays -->
    <g stroke="#FFFFFF" stroke-width="2" stroke-linecap="round" opacity="0.6">
      <line x1="13" y1="-13" x2="10" y2="-10"/>
      <line x1="13" y1="13" x2="10" y2="10"/>
      <line x1="-13" y1="13" x2="-10" y2="10"/>
      <line x1="-13" y1="-13" x2="-10" y2="-10"/>
    </g>
  </g>
  
  <!-- Sparkle effects -->
  <g fill="#FFFFFF" opacity="0.7">
    <circle cx="20" cy="25" r="2"/>
    <circle cx="75" cy="35" r="1.5"/>
    <circle cx="80" cy="70" r="2"/>
    <circle cx="25" cy="80" r="1"/>
  </g>
</svg>
